#!OML:ASF F:\VICON\USERDATA\INSTALL\rory3\rory3.ASF
:FULLY-SPECIFIED
:DEGREES
169
root 1.3116385309613152 17.975572176440583 46.88318701580545 -3.2345621597620173 0.08252764243777849 -2.335163955521643
lfemur 3.652937565956977 -2.999918837783772 -19.730857084431463
ltibia 54.019304369401894
lfoot -16.18731609918306 -3.4703597177551817
ltoes -19.565575454878356
rfemur -10.750580673603636 2.2722707914979803 26.50985650140629
rtibia 17.15446585164797
rfoot -0.20769855202733023 -7.134090995439279
rtoes 2.157317158120153
lowerback 10.095852947322697 -0.9315126679803725 0.9277396491805113
upperback -0.29921383375489397 -0.9797311252693282 2.3343690778678057
thorax -6.05054473714312 -0.4748023241537219 3.014270970676096
lowerneck -16.458265333599222 -3.3310887733282426 -1.6671566888527223
upperneck 21.85794502683594 -4.497080071279582 0.7071698257682602
head 9.74772039645201 -2.1285565755831444 -0.049514318533304374
lclavicle -2.7003079518332404e-15 -2.1517147062605023e-15
lhumerus -30.782947636763133 4.588842589102825 81.51736713325919
lradius 24.105652443878853
lwrist 11.068069970003405
lhand -28.915264826932365 16.02236831327242
lfingers 7.125020000000001
lthumb -2.212066437047954 46.25655144548364
rclavicle -2.700307951767431e-15 -2.15171470621519e-15
rhumerus -33.91649102815363 -21.636466643438546 -75.17102112206412
rradius 26.254711670877253
rwrist 3.9077431615015192
rhand -18.0597883873182 22.438838876562677
rfingers 7.125020000000001
rthumb 8.034004896739667 -6.161715916743727
170
root 1.315848706769007 17.97375537234421 47.51365386262428 -3.274729571068983 0.3681698106556751 -2.3792827858005503
lfemur 2.729354586289194 -2.981879512715634 -19.626502360852403
ltibia 54.654122375922185
lfoot -15.786694106873977 -3.5258259247621044
ltoes -16.68063272950385
rfemur -10.726113879304826 2.023540814544022 26.330764764585368
rtibia 18.248658013684768
rfoot -0.2336246020256052 -7.248608292339427
rtoes 2.2344429513097226
lowerback 10.105513766616527 -0.8851116741808285 1.0177664429553264
upperback -0.26793617026431926 -0.8994478047086196 2.3075747605585595
thorax -6.02425018016243 -0.4075553213669574 2.9347950717718336
lowerneck -16.420906454885248 -3.338067027114504 -1.6775797433198987
upperneck 21.811030121838584 -4.525718050133397 0.7225508494464721
head 9.706213614904511 -2.1431627757224376 -0.04275624062534247
lclavicle -2.700307951822955e-15 -2.151714706253571e-15
lhumerus -30.747564673570867 4.757658617974449 81.4527842288314
lradius 24.073132910958165
lwrist 11.46923062561209
lhand -28.82607394644424 15.66066218411487
lfingers 7.125020000000001
lthumb -2.2425673444207415 45.70675447137221
rclavicle -2.700307951760243e-15 -2.1517147062103556e-15
rhumerus -33.92334191615116 -21.814120958554724 -75.1882592974518
rradius 26.22634461952246
rwrist 4.321703998593446
rhand -18.040102417598785 22.370544053349185
rfingers 7.125020000000001
rthumb 8.11558627151046 -6.35103570491637
171
root 1.324750550656582 17.971627099325005 48.185596880226214 -3.355099706571782 0.5966423715115843 -2.3588282359706616
lfemur 1.7560860124283515 -2.897925697541063 -19.477914671757183
ltibia 55.383679412050796
lfoot -15.739958971851465 -3.7300000996797635
ltoes -13.768780325494642
rfemur -10.747053168806623 1.8437965189737933 26.14480704673517
rtibia 18.998737280337423
rfoot -0.3040807986794718 -7.424529549072361
rtoes 2.865225007939514
lowerback 10.144825650099092 -0.8660991814233339 0.9950066859901305
upperback -0.24864000479356207 -0.8894689069471993 2.2825157978595905
thorax -6.04994286098484 -0.4021746547365832 2.8454498688339824
lowerneck -16.42661777638901 -3.345964985195448 -1.6686197182222562
upperneck 21.720934375062456 -4.533000181148621 0.7749503732540832
head 9.670396420882872 -2.1466767016336044 -0.03276945406828355
lclavicle -2.7003079518289676e-15 -2.1517147062576647e-15
lhumerus -30.676027288877744 4.896090747800626 81.41791635729822
lradius 23.968157912980914
lwrist 11.641544404534766
lhand -28.931981073831825 16.02105337455495
lfingers 7.125020000000001
lthumb -2.367920307641418 46.106523753113485
rclavicle -2.700307951756135e-15 -2.151714706207474e-15
rhumerus -33.77518779988867 -21.935636137853088 -75.22220027256888
rradius 26.13618798235422
rwrist 4.82134808192137
rhand -17.979920354362346 22.397710655520683
rfingers 7.125020000000001
rthumb 8.103202667418037 -6.568883061366798
172
root 1.3271797819207287 17.953455175005935 48.81146866065069 -3.6739171914531714 0.664752109663753 -1.8850786085242208
lfemur 1.9194746680511994 -2.8869546147373777 -19.836043156090675
ltibia 55.56295210906711
lfoot -15.366530553353527 -3.8608916382646687
ltoes -9.924547894241046
rfemur -10.925785972579005 1.6588201759720056 25.631870261199396
rtibia 20.361352468458822
rfoot -0.30939057293395855 -7.63418404049054
rtoes 3.5840611314045496
lowerback 10.233487054119703 -0.8386993361359729 0.547690089298311
upperback -0.19037304222287169 -0.9269429940100966 2.205876862442323
thorax -6.017804660110706 -0.4002858234441531 2.889226478254608
lowerneck -16.45504717338336 -3.352040568752413 -1.6486764336085096
upperneck 21.655568466281952 -4.545075465287713 0.8286327602426986
head 9.64079935382172 -2.150458773973886 -0.018681041162799367
lclavicle -2.70030795183015e-15 -2.1517147062585486e-15
lhumerus -30.538772605361704 4.983189571569129 81.43151700486855
lradius 23.85865341129184
lwrist 11.533046367575478
lhand -29.250018102813115 16.341691307355433
lfingers 7.125020000000001
lthumb -2.699247535511055 46.43639138698536
rclavicle -2.7003079517656922e-15 -2.1517147062140123e-15
rhumerus -33.710253133515415 -22.145043221871465 -75.23175824969914
rradius 26.04663204863888
rwrist 5.168377427754744
rhand -18.00118285746316 22.218498258036124
rfingers 7.125020000000001
rthumb 8.125290373778455 -6.81956262052759
173
root 1.316216032334474 17.93357807729973 49.25149456206667 -3.9070655512296795 0.7251725019376368 -1.5470497481098218
lfemur 1.9673720279236608 -2.87909356323046 -20.192566018742994
ltibia 55.47974792624322
lfoot -15.436502614121451 -4.159470021430894
ltoes -13.502135938948332
rfemur -11.390876173555938 1.4232245287945302 25.15928426952834
rtibia 21.779907394337314
rfoot -0.2911792892448135 -7.834942317348826
rtoes 4.432379715971816
lowerback 10.292091051702796 -0.7619678286432299 0.2901221709718787
upperback -0.13622746065707558 -0.8965094179514106 2.13411206303183
thorax -6.036749835157502 -0.3856373579408794 2.818693714756545
lowerneck -16.44943718475388 -3.355040430311481 -1.6387178570128589
upperneck 21.52813776874999 -4.552861518438724 0.9227780513369671
head 9.568784803328596 -2.154929797496424 0.018190028090525584
lclavicle -2.7003079518191107e-15 -2.151714706251002e-15
lhumerus -30.456680996251237 4.892983947429657 81.5201306156417
lradius 23.809650993604805
lwrist 10.942333471724835
lhand -29.256184637798746 16.14473401426655
lfingers 7.125020000000001
lthumb -2.729104975405927 46.136342626394274
rclavicle -2.7003079517683503e-15 -2.151714706215823e-15
rhumerus -33.67044258394888 -22.393652536029563 -75.20043856457198
rradius 26.05457286260796
rwrist 5.3391122002451805
rhand -17.958802132409954 22.14792854634079
rfingers 7.125020000000001
rthumb 8.136168808317613 -7.081733858466095
174
root 1.3145578372377724 17.91700662635454 49.860909861002426 -4.0441718162318105 0.8947158708764169 -1.3686962661673783
lfemur 1.4146377271646475 -2.8473195906505757 -20.303556499594432
ltibia 55.38666555525313
lfoot -15.347733752237438 -4.27575117533414
ltoes -12.877730528181175
rfemur -11.88791970314751 1.1707135982299097 24.78493665664972
rtibia 22.884229248767
rfoot -0.29858851786562024 -8.06586443212451
rtoes 5.317431544272129
lowerback 10.32819940720645 -0.7252035236689194 0.15317082003970206
upperback -0.1127673688257045 -0.8444149085817276 2.111604220323282
thorax -6.038700601740999 -0.3824413517845957 2.73955345032906
lowerneck -16.51632295825385 -3.3585938560279827 -1.5950044973140411
upperneck 21.46710396780408 -4.572374925861568 0.9527843340448472
head 9.573440900618602 -2.1591597370183435 0.002347938164775104
lclavicle -2.700307951820782e-15 -2.1517147062521285e-15
lhumerus -30.33880472282541 4.647663607183836 81.6714573635143
lradius 23.89849930828581
lwrist 10.677049651183104
lhand -29.147235239650588 15.394180787584808
lfingers 7.125020000000001
lthumb -2.667888733705772 45.22553337416128
rclavicle -2.700307951762995e-15 -2.151714706212284e-15
rhumerus -33.36554450484308 -22.434473810359517 -75.25157967820039
rradius 26.086587628010832
rwrist 5.643296754442616
rhand -17.94716540265462 21.999787643809476
rfingers 7.125020000000001
rthumb 8.267650030923525 -7.129502279898432
175
root 1.298864496140666 17.884205766099907 49.63714551579362 -4.382522974840955 0.8784397009486693 -0.9546060212422853
lfemur 1.2199870170391307 -2.772468971399032 -20.56519253086972
ltibia 55.21857101606838
lfoot -15.626944390462754 -4.520972669785758
ltoes -9.385709282114709
rfemur -12.520736086740925 0.9877796239475303 24.246094134920757
rtibia 24.6168606532084
rfoot -0.23226949157013976 -8.364055471505146
rtoes 7.478448863773795
lowerback 10.437835063685883 -0.684765812297464 -0.3161339252146874
upperback -0.07622943623155112 -0.8845933576321037 2.0325494698157343
thorax -6.034283660021113 -0.3932738385209281 2.7911342945207234
lowerneck -16.586839408470716 -3.36022328163001 -1.5336384594008607
upperneck 21.435609058420525 -4.581631723486636 0.9863750804590573
head 9.579883030342693 -2.161616626449692 -0.00561998101027103
lclavicle -2.7003079518201465e-15 -2.1517147062516698e-15
lhumerus -29.99978764056037 4.422322496254335 81.86965420337341
lradius 24.105546652541367
lwrist 10.526803382090195
lhand -29.422348335317555 15.033339517106858
lfingers 7.125020000000001
lthumb -2.9889298225623246 44.54572423448692
rclavicle -2.700307951762106e-15 -2.1517147062116335e-15
rhumerus -32.917700128930775 -22.323596367465072 -75.52660526992516
rradius 26.135300139135538
rwrist 5.777859622303456
rhand -17.980382993665312 21.808089555351263
rfingers 7.125020000000001
rthumb 8.232924992787597 -7.5127003024079
